<?xml version="1.0" encoding="UTF-8"?>
<!DOCTYPE svg PUBLIC "-//W3C//DTD SVG 1.1//EN" "http://www.w3.org/Graphics/SVG/1.1/DTD/svg11.dtd">
<!-- Creator: CorelDRAW 2020 (64-Bit) -->
<svg xmlns="http://www.w3.org/2000/svg" xml:space="preserve" width="2400px" height="440px" version="1.1" style="shape-rendering:geometricPrecision; text-rendering:geometricPrecision; image-rendering:optimizeQuality; fill-rule:evenodd; clip-rule:evenodd"
viewBox="0 0 2400 440"
 xmlns:xlink="http://www.w3.org/1999/xlink"
 xmlns:xodm="http://www.corel.com/coreldraw/odm/2003">
 <defs>
  <style type="text/css">
   <![CDATA[
    .str0 {stroke:#00A0E3;stroke-width:8;stroke-miterlimit:22.9256}
    .fil5 {fill:none}
    .fil1 {fill:#5B5B5B}
    .fil0 {fill:#00A0E3}
    .fil2 {fill:yellow}
    .fil4 {fill:#5B5B5B;fill-rule:nonzero}
    .fil3 {fill:#00A0E3;fill-rule:nonzero}
   ]]>
  </style>
 </defs>
 <g id="Слой_x0020_1">
  <metadata id="CorelCorpID_0Corel-Layer"/>
  <path class="fil0" d="M229 212l-106 -183c32,-19 69,-28 106,-28 117,0 211,95 211,211l-211 0z"/>
  <path class="fil1" d="M217 218l-106 183c-65,-38 -106,-108 -106,-183 0,-76 40,-145 106,-183l106 183z"/>
  <path class="fil2" d="M229 224l211 0c0,117 -95,211 -211,211 -37,0 -74,-10 -106,-28l106 -183z"/>
  <path class="fil3" d="M676 3l26 0 0 267 -26 0 0 -267zm19 242l122 0 0 25 -122 0 0 -25z"/>
  <polygon id="1" class="fil3" points="884,270 858,270 858,3 884,3 "/>
  <polygon id="2" class="fil3" points="940,3 966,3 1086,233 1078,231 1078,3 1104,3 1104,270 1078,270 957,39 966,42 966,270 940,270 "/>
  <path id="3" class="fil3" d="M1156 3l26 0 0 267 -26 0 0 -267zm18 242l125 0 0 25 -125 0 0 -25zm0 -120l110 0 0 25 -110 0 0 -25zm0 -122l125 0 0 25 -125 0 0 -25z"/>
  <polygon id="4" class="fil3" points="1436,3 1456,3 1503,236 1546,3 1575,3 1519,270 1487,270 1447,67 1405,270 1373,270 1317,3 1346,3 1388,236 "/>
  <path id="5" class="fil3" d="M1678 272c-17,0 -31,-3 -43,-10 -12,-7 -21,-16 -27,-28 -6,-12 -9,-27 -9,-45l0 -107c0,-18 3,-32 9,-45 6,-12 15,-22 27,-28 12,-7 26,-10 43,-10 17,0 31,3 43,10 12,6 21,16 27,28 6,12 9,27 9,45l0 107c0,17 -3,32 -9,45 -6,12 -15,22 -27,28 -12,6 -26,10 -43,10zm0 -25c11,0 21,-2 29,-7 8,-4 14,-11 18,-19 4,-8 6,-18 6,-30l0 -109c0,-12 -2,-22 -6,-30 -4,-8 -10,-15 -18,-19 -8,-4 -18,-7 -29,-7 -11,0 -21,2 -29,7 -8,4 -14,11 -18,19 -4,8 -6,19 -6,30l0 109c0,12 2,22 6,30 4,8 10,15 18,19 8,4 18,7 29,7z"/>
  <path id="6" class="fil3" d="M1819 132l70 0c9,0 17,-2 23,-6 7,-4 12,-9 15,-16 4,-7 5,-15 5,-24l0 -14c0,-9 -2,-18 -5,-24 -4,-7 -9,-12 -15,-16 -7,-4 -14,-6 -23,-6l-70 0 0 -25 69 0c15,0 27,3 38,8 11,6 19,13 25,24 6,10 9,23 9,37l0 16c0,14 -3,27 -9,37 -6,11 -14,19 -25,24 -11,6 -24,8 -38,8l-69 0 0 -25zm-16 -130l26 0 0 267 -26 0 0 -267zm87 146l24 -8 55 130 -31 0 -48 -121z"/>
  <path id="7" class="fil3" d="M2027 173l115 -170 32 0 -141 202 -6 -32zm-17 -170l26 0 0 267 -26 0 0 -267zm75 124l16 -27 84 170 -31 0 -68 -142z"/>
  <path class="fil4" d="M734 433c0,0 0,1 0,1 0,0 0,0 -1,1 0,0 -1,0 -2,0 -1,0 -2,0 -3,0 -1,0 -2,0 -3,0 -1,0 -1,0 -2,0 0,0 -1,0 -1,-1 0,0 0,-1 0,-1l0 -36 -37 0 0 36c0,0 0,1 0,1 0,0 0,0 -1,1 0,0 -1,0 -2,0 -1,0 -2,0 -3,0 -1,0 -2,0 -3,0 -1,0 -1,0 -2,0 0,0 -1,0 -1,-1 0,0 0,-1 0,-1l0 -77c0,0 0,-1 0,-1 0,0 0,0 1,-1 0,0 1,0 2,0 1,0 2,0 3,0 1,0 2,0 3,0 1,0 1,0 2,0 0,0 1,0 1,1 0,0 0,1 0,1l0 32 37 0 0 -32c0,0 0,-1 0,-1 0,0 0,0 1,-1 0,0 1,0 2,0 1,0 2,0 3,0 1,0 2,0 3,0 1,0 1,0 2,0 0,0 1,0 1,1 0,0 0,1 0,1l0 77z"/>
  <path id="1" class="fil4" d="M816 405c0,5 -1,9 -2,13 -1,4 -3,7 -6,10 -3,3 -6,5 -10,6 -4,1 -8,2 -13,2 -4,0 -8,-1 -12,-2 -4,-1 -7,-3 -9,-6 -3,-3 -5,-6 -6,-9 -1,-4 -2,-8 -2,-13l0 -50c0,0 0,-1 0,-1 0,0 0,0 1,-1 0,0 1,0 2,0 1,0 2,0 3,0 1,0 2,0 3,0 1,0 1,0 2,0 0,0 1,0 1,1 0,0 0,1 0,1l0 49c0,4 0,7 1,10 1,3 2,5 4,7 2,2 4,3 6,4 2,1 5,1 8,1 3,0 6,0 8,-1 2,-1 4,-2 6,-4 2,-2 3,-4 4,-7 1,-3 1,-6 1,-9l0 -49c0,0 0,-1 0,-1 0,0 0,0 1,-1 0,0 1,0 2,0 1,0 2,0 3,0 1,0 2,0 3,0 1,0 1,0 2,0 0,0 1,0 1,1 0,0 0,1 0,1l0 49z"/>
  <path id="2" class="fil4" d="M925 433c0,0 0,1 0,1 0,0 0,0 -1,1 0,0 -1,0 -2,0 -1,0 -2,0 -3,0 -1,0 -2,0 -3,0 -1,0 -1,0 -2,0 0,0 -1,0 -1,-1 0,0 0,-1 0,-1l0 -70 0 0 -28 70c0,0 0,1 -1,1 0,0 -1,0 -1,1 0,0 -1,0 -2,0 -1,0 -1,0 -2,0 -1,0 -2,0 -2,0 -1,0 -1,0 -2,0 0,0 -1,0 -1,-1 0,0 0,0 0,-1l-27 -70 0 0 0 70c0,0 0,1 0,1 0,0 0,0 -1,1 0,0 -1,0 -2,0 -1,0 -2,0 -3,0 -1,0 -2,0 -3,0 -1,0 -1,0 -2,0 0,0 -1,0 -1,-1 0,0 0,-1 0,-1l0 -74c0,-2 0,-3 1,-4 1,-1 2,-1 3,-1l7 0c1,0 3,0 4,0 1,0 2,1 3,1 1,1 1,1 2,2 1,1 1,2 1,3l23 58 0 0 24 -58c0,-1 1,-2 2,-3 1,-1 1,-2 2,-2 1,-1 1,-1 2,-1 1,0 2,0 3,0l7 0c1,0 1,0 2,0 1,0 1,0 1,1 0,0 1,1 1,2 0,1 0,1 0,2l0 74z"/>
  <path id="3" class="fil4" d="M1006 431c0,1 1,2 1,2 0,1 0,1 0,1 0,0 -1,0 -2,1 -1,0 -2,0 -3,0 -1,0 -2,0 -3,0 -1,0 -1,0 -2,0 0,0 -1,0 -1,-1 0,0 0,-1 -1,-1l-7 -20 -33 0 -7 19c0,0 0,1 0,1 0,0 -1,0 -1,1 0,0 -1,0 -2,0 -1,0 -2,0 -3,0 -1,0 -2,0 -3,0 -1,0 -1,0 -2,-1 0,0 0,-1 0,-1 0,-1 0,-1 1,-2l27 -75c0,0 0,-1 1,-1 0,0 1,-1 1,-1 1,0 1,0 2,0 1,0 2,0 3,0 1,0 2,0 3,0 1,0 2,0 2,0 1,0 1,0 1,1 0,0 1,1 1,1l27 75zm-35 -66l0 0 -14 40 28 0 -14 -40z"/>
  <path id="4" class="fil4" d="M1081 430c0,1 0,2 0,2 0,1 -1,1 -1,1 0,0 -1,1 -2,1 -1,0 -1,0 -2,0l-4 0c-1,0 -2,0 -3,0 -1,0 -2,-1 -2,-1 -1,-1 -2,-1 -2,-2 -1,-1 -2,-2 -2,-4l-25 -46c-1,-2 -3,-5 -4,-7 -1,-3 -3,-5 -4,-8l0 0c0,3 0,6 0,9 0,3 0,6 0,9l0 49c0,0 0,1 0,1 0,0 0,0 -1,1 0,0 -1,0 -2,0 -1,0 -2,0 -3,0 -1,0 -2,0 -3,0 -1,0 -1,0 -2,0 0,0 -1,0 -1,-1 0,0 0,-1 0,-1l0 -74c0,-2 0,-3 1,-4 1,-1 2,-1 3,-1l5 0c1,0 2,0 3,0 1,0 2,1 2,1 1,0 1,1 2,2 1,1 1,2 2,3l19 35c1,2 2,4 3,6 1,2 2,4 3,6 1,2 2,4 3,6 1,2 2,4 3,6l0 0c0,-3 0,-7 0,-10 0,-4 0,-7 0,-10l0 -44c0,0 0,-1 0,-1 0,0 0,0 1,-1 0,0 1,0 2,0 1,0 2,0 3,0 1,0 2,0 2,0 1,0 1,0 2,0 0,0 1,0 1,1 0,0 0,1 0,1l0 74z"/>
  <path id="5" class="fil4" d="M1184 433c0,0 0,1 0,1 0,0 0,0 -1,1 0,0 -1,0 -2,0 -1,0 -2,0 -3,0 -1,0 -2,0 -3,0 -1,0 -1,0 -2,0 0,0 -1,0 -1,-1 0,0 0,-1 -1,-1l-7 -19c-1,-2 -2,-4 -3,-6 -1,-2 -2,-3 -3,-5 -1,-1 -3,-2 -5,-3 -2,-1 -4,-1 -6,-1l-7 0 0 34c0,0 0,1 0,1 0,0 0,0 -1,1 0,0 -1,0 -2,0 -1,0 -2,0 -3,0 -1,0 -2,0 -3,0 -1,0 -1,0 -2,0 0,0 -1,0 -1,-1 0,0 0,-1 0,-1l0 -75c0,-2 0,-3 1,-3 1,-1 2,-1 3,-1l17 0c2,0 4,0 5,0 1,0 3,0 4,0 3,1 6,1 8,3 2,1 4,3 6,4 2,2 3,4 4,6 1,2 1,5 1,8 0,3 0,5 -1,7 -1,2 -2,4 -3,6 -1,2 -3,3 -5,4 -2,1 -4,2 -6,3 1,1 3,1 4,2 1,1 2,2 3,3 1,1 2,3 3,4 1,2 2,3 2,5l7 18c1,1 1,3 1,3 0,1 0,1 0,1zm-16 -57c0,-3 -1,-6 -2,-8 -1,-2 -4,-4 -7,-5 -1,0 -2,0 -4,-1 -1,0 -3,0 -5,0l-9 0 0 27 10 0c3,0 5,0 7,-1 2,-1 4,-2 5,-3 1,-1 2,-3 3,-4 1,-2 1,-3 1,-5z"/>
  <path id="6" class="fil4" d="M1245 430c0,1 0,1 0,2 0,1 0,1 0,1 0,0 0,1 -1,1 0,0 -1,0 -1,0l-39 0c-1,0 -2,0 -3,-1 -1,-1 -1,-2 -1,-3l0 -72c0,-2 0,-3 1,-3 1,-1 2,-1 3,-1l38 0c0,0 1,0 1,0 0,0 0,0 1,1 0,0 0,1 0,1 0,1 0,1 0,2 0,1 0,1 0,2 0,1 0,1 0,1 0,0 0,1 -1,1 0,0 -1,0 -1,0l-31 0 0 25 27 0c0,0 1,0 1,0 0,0 0,0 1,1 0,0 0,1 0,1 0,1 0,1 0,2 0,1 0,1 0,2 0,1 0,1 0,1 0,0 0,1 -1,1 0,0 -1,0 -1,0l-27 0 0 29 32 0c0,0 1,0 1,0 0,0 1,0 1,1 0,0 0,1 0,1 0,1 0,1 0,2z"/>
  <path id="7" class="fil4" d="M1304 412c0,4 -1,7 -2,10 -1,3 -3,5 -6,7 -2,2 -5,4 -9,5 -3,1 -7,2 -11,2 -3,0 -5,0 -7,-1 -2,0 -4,-1 -6,-2 -2,-1 -3,-1 -5,-2 -1,-1 -2,-1 -3,-2 0,0 -1,-1 -1,-2 0,-1 0,-2 0,-3 0,-1 0,-2 0,-2 0,-1 0,-1 0,-1 0,0 0,-1 1,-1 0,0 1,0 1,0 1,0 1,0 2,1 1,1 2,1 4,2 2,1 4,2 6,2 2,1 5,1 8,1 2,0 4,0 6,-1 2,-1 4,-1 5,-3 1,-1 2,-3 3,-4 1,-2 1,-4 1,-6 0,-2 -1,-4 -2,-6 -1,-2 -2,-3 -4,-4 -2,-1 -4,-2 -6,-3 -2,-1 -4,-2 -7,-3 -2,-1 -5,-2 -7,-4 -2,-1 -4,-3 -6,-5 -2,-2 -3,-4 -4,-6 -1,-2 -2,-5 -2,-8 0,-3 1,-6 2,-9 1,-3 3,-5 5,-7 2,-2 5,-3 8,-4 3,-1 6,-1 10,-1 2,0 4,0 5,0 2,0 4,1 5,1 2,1 3,1 4,2 1,1 2,1 2,2 0,0 1,1 1,1 0,0 0,1 0,1 0,0 0,1 0,1 0,0 0,1 0,2 0,1 0,1 0,2 0,1 0,1 0,1 0,0 0,1 -1,1 0,0 0,0 -1,0 0,0 -1,0 -2,-1 -1,-1 -2,-1 -4,-2 -1,-1 -3,-1 -5,-2 -2,-1 -4,-1 -7,-1 -2,0 -4,0 -6,1 -2,1 -3,1 -4,2 -1,1 -2,2 -2,4 -1,1 -1,3 -1,4 0,2 1,4 2,6 1,2 2,3 4,4 2,1 4,2 6,3 2,1 4,2 7,3 2,1 5,2 7,3 2,1 4,3 6,4 2,2 3,4 4,6 1,2 2,5 2,8z"/>
  <path id="8" class="fil4" d="M1387 393c0,7 -1,12 -2,18 -2,5 -4,10 -7,13 -3,4 -7,6 -11,8 -5,2 -10,3 -16,3 -6,0 -11,-1 -16,-3 -4,-2 -8,-4 -11,-8 -3,-3 -5,-8 -6,-13 -1,-5 -2,-11 -2,-18 0,-6 1,-12 2,-17 2,-5 4,-10 7,-13 3,-4 7,-6 12,-8 5,-2 10,-3 16,-3 6,0 11,1 15,3 4,2 8,4 11,8 3,3 5,8 7,13 1,5 2,11 2,17zm-11 1c0,-5 0,-9 -1,-13 -1,-4 -2,-7 -4,-10 -2,-3 -4,-5 -8,-7 -3,-2 -7,-2 -12,-2 -5,0 -9,1 -12,3 -3,2 -6,4 -8,7 -2,3 -3,6 -4,10 -1,4 -1,8 -1,12 0,5 0,9 1,13 1,4 2,7 4,10 2,3 4,5 7,7 3,2 7,2 12,2 5,0 9,-1 12,-3 3,-2 6,-4 8,-7 2,-3 3,-6 4,-10 1,-4 1,-8 1,-12z"/>
  <path id="9" class="fil4" d="M1464 405c0,5 -1,9 -2,13 -1,4 -3,7 -6,10 -3,3 -6,5 -10,6 -4,1 -8,2 -13,2 -4,0 -8,-1 -12,-2 -4,-1 -7,-3 -9,-6 -3,-3 -5,-6 -6,-9 -1,-4 -2,-8 -2,-13l0 -50c0,0 0,-1 0,-1 0,0 0,0 1,-1 0,0 1,0 2,0 1,0 2,0 3,0 1,0 2,0 3,0 1,0 1,0 2,0 0,0 1,0 1,1 0,0 0,1 0,1l0 49c0,4 0,7 1,10 1,3 2,5 4,7 2,2 4,3 6,4 2,1 5,1 8,1 3,0 6,0 8,-1 2,-1 4,-2 6,-4 2,-2 3,-4 4,-7 1,-3 1,-6 1,-9l0 -49c0,0 0,-1 0,-1 0,0 0,0 1,-1 0,0 1,0 2,0 1,0 2,0 3,0 1,0 2,0 3,0 1,0 1,0 2,0 0,0 1,0 1,1 0,0 0,1 0,1l0 49z"/>
  <path id="10" class="fil4" d="M1539 433c0,0 0,1 0,1 0,0 0,0 -1,1 0,0 -1,0 -2,0 -1,0 -2,0 -3,0 -1,0 -2,0 -3,0 -1,0 -1,0 -2,0 0,0 -1,0 -1,-1 0,0 0,-1 -1,-1l-7 -19c-1,-2 -2,-4 -3,-6 -1,-2 -2,-3 -3,-5 -1,-1 -3,-2 -5,-3 -2,-1 -4,-1 -6,-1l-7 0 0 34c0,0 0,1 0,1 0,0 0,0 -1,1 0,0 -1,0 -2,0 -1,0 -2,0 -3,0 -1,0 -2,0 -3,0 -1,0 -1,0 -2,0 0,0 -1,0 -1,-1 0,0 0,-1 0,-1l0 -75c0,-2 0,-3 1,-3 1,-1 2,-1 3,-1l17 0c2,0 4,0 5,0 1,0 3,0 4,0 3,1 6,1 8,3 2,1 4,3 6,4 2,2 3,4 4,6 1,2 1,5 1,8 0,3 0,5 -1,7 -1,2 -2,4 -3,6 -1,2 -3,3 -5,4 -2,1 -4,2 -6,3 1,1 3,1 4,2 1,1 2,2 3,3 1,1 2,3 3,4 1,2 2,3 2,5l7 18c1,1 1,3 1,3 0,1 0,1 0,1zm-16 -57c0,-3 -1,-6 -2,-8 -1,-2 -4,-4 -7,-5 -1,0 -2,0 -4,-1 -1,0 -3,0 -5,0l-9 0 0 27 10 0c3,0 5,0 7,-1 2,-1 4,-2 5,-3 1,-1 2,-3 3,-4 1,-2 1,-3 1,-5z"/>
  <path id="11" class="fil4" d="M1607 423c0,1 0,1 0,2 0,0 0,1 0,1 0,0 0,1 0,1 0,0 0,1 -1,1 0,0 -1,1 -3,2 -1,1 -3,2 -5,2 -2,1 -4,1 -7,2 -3,1 -5,1 -8,1 -5,0 -10,-1 -14,-3 -4,-2 -8,-4 -11,-8 -3,-3 -5,-8 -7,-13 -2,-5 -2,-11 -2,-17 0,-7 1,-13 3,-18 2,-5 4,-10 7,-13 3,-4 7,-6 11,-8 4,-2 9,-3 14,-3 2,0 5,0 7,1 2,0 4,1 6,2 2,1 4,1 5,2 1,1 2,2 3,2 1,1 1,1 1,1 0,0 0,1 0,1 0,0 0,1 0,1 0,1 0,1 0,2 0,1 0,2 0,2 0,1 0,1 0,1 0,0 0,1 -1,1 0,0 -1,0 -1,0 -1,0 -1,0 -2,-1 -1,-1 -2,-2 -4,-3 -2,-1 -4,-2 -6,-3 -2,-1 -5,-1 -8,-1 -4,0 -7,1 -10,2 -3,1 -5,4 -8,6 -2,3 -4,6 -5,10 -1,4 -2,9 -2,14 0,5 1,10 2,14 1,4 3,7 5,10 2,3 5,5 8,6 3,1 6,2 10,2 3,0 6,0 8,-1 2,-1 4,-2 6,-3 2,-1 3,-2 4,-3 1,-1 2,-1 3,-1 0,0 1,0 1,0 0,0 0,0 0,1 0,0 0,1 0,1 0,1 0,1 0,2z"/>
  <path id="12" class="fil4" d="M1666 430c0,1 0,1 0,2 0,1 0,1 0,1 0,0 0,1 -1,1 0,0 -1,0 -1,0l-39 0c-1,0 -2,0 -3,-1 -1,-1 -1,-2 -1,-3l0 -72c0,-2 0,-3 1,-3 1,-1 2,-1 3,-1l38 0c0,0 1,0 1,0 0,0 0,0 1,1 0,0 0,1 0,1 0,1 0,1 0,2 0,1 0,1 0,2 0,1 0,1 0,1 0,0 0,1 -1,1 0,0 -1,0 -1,0l-32 0 0 25 27 0c0,0 1,0 1,0 0,0 0,0 1,1 0,0 0,1 0,1 0,1 0,1 0,2 0,1 0,1 0,2 0,1 0,1 0,1 0,0 0,1 -1,1 0,0 -1,0 -1,0l-27 0 0 29 32 0c0,0 1,0 1,0 0,0 1,0 1,1 0,0 0,1 0,1 0,1 0,1 0,2z"/>
  <path id="13" class="fil4" d="M1725 412c0,4 -1,7 -2,10 -1,3 -3,5 -6,7 -2,2 -5,4 -9,5 -3,1 -7,2 -11,2 -3,0 -5,0 -8,-1 -2,0 -4,-1 -6,-2 -2,-1 -3,-1 -5,-2 -1,-1 -2,-1 -3,-2 0,0 -1,-1 -1,-2 0,-1 0,-2 0,-3 0,-1 0,-2 0,-2 0,-1 0,-1 0,-1 0,0 0,-1 1,-1 0,0 1,0 1,0 1,0 1,0 2,1 1,1 2,1 4,2 2,1 4,2 6,2 2,1 5,1 8,1 2,0 4,0 6,-1 2,-1 4,-1 5,-3 1,-1 2,-3 3,-4 1,-2 1,-4 1,-6 0,-2 -1,-4 -2,-6 -1,-2 -2,-3 -4,-4 -2,-1 -4,-2 -6,-3 -2,-1 -4,-2 -7,-3 -2,-1 -5,-2 -7,-4 -2,-1 -4,-3 -6,-5 -2,-2 -3,-4 -4,-6 -1,-2 -2,-5 -2,-8 0,-3 1,-6 2,-9 1,-3 3,-5 5,-7 2,-2 5,-3 8,-4 3,-1 6,-1 10,-1 2,0 4,0 5,0 2,0 4,1 5,1 2,1 3,1 4,2 1,1 2,1 2,2 0,0 1,1 1,1 0,0 0,1 0,1 0,0 0,1 0,1 0,0 0,1 0,2 0,1 0,1 0,2 0,1 0,1 0,1 0,0 0,1 -1,1 0,0 0,0 -1,0 0,0 -1,0 -2,-1 -1,-1 -2,-1 -4,-2 -1,-1 -3,-1 -5,-2 -2,-1 -4,-1 -6,-1 -2,0 -4,0 -6,1 -2,1 -3,1 -4,2 -1,1 -2,2 -2,4 -1,1 -1,3 -1,4 0,2 1,4 2,6 1,2 2,3 4,4 2,1 4,2 6,3 2,1 4,2 7,3 2,1 5,2 7,3 2,1 4,3 6,4 2,2 3,4 4,6 1,2 2,5 2,8z"/>
  <path id="14" class="fil4" d="M1830 431c0,1 1,2 1,2 0,1 0,1 0,1 0,0 -1,0 -2,1 -1,0 -2,0 -3,0 -1,0 -2,0 -3,0 -1,0 -1,0 -2,0 0,0 -1,0 -1,-1 0,0 0,-1 -1,-1l-7 -20 -33 0 -7 19c0,0 0,1 0,1 0,0 -1,0 -1,1 0,0 -1,0 -2,0 -1,0 -2,0 -3,0 -1,0 -2,0 -3,0 -1,0 -1,0 -2,-1 0,0 0,-1 0,-1 0,-1 0,-1 1,-2l27 -75c0,0 0,-1 1,-1 0,0 1,-1 1,-1 1,0 1,0 2,0 1,0 2,0 3,0 1,0 2,0 3,0 1,0 2,0 2,0 1,0 1,0 1,1 0,0 1,1 1,1l27 75zm-35 -66l0 0 -14 40 28 0 -14 -40z"/>
  <path id="15" class="fil4" d="M1902 365c0,1 0,1 0,2 0,1 0,1 0,2 0,0 0,1 -1,1 0,0 -1,0 -1,0 0,0 -1,0 -2,-1 -1,-1 -3,-2 -5,-3 -2,-1 -4,-2 -7,-3 -3,-1 -6,-1 -10,-1 -4,0 -8,1 -12,2 -4,2 -7,4 -9,7 -2,3 -4,6 -6,10 -1,4 -2,8 -2,13 0,5 1,10 2,14 1,4 3,7 6,10 3,3 6,5 9,6 4,1 7,2 12,2 3,0 5,0 8,-1 3,-1 5,-2 7,-3l0 -24 -19 0c-1,0 -1,0 -2,-1 0,-1 -1,-2 -1,-3 0,-1 0,-1 0,-2 0,-1 0,-1 0,-1 0,0 0,-1 1,-1 0,0 1,0 1,0l26 0c0,0 1,0 1,0 0,0 1,0 1,1 0,0 1,1 1,1 0,1 0,1 0,2l0 31c0,1 0,2 -1,3 0,1 -1,1 -2,2 -1,1 -3,1 -5,2 -2,1 -4,1 -6,2 -2,0 -4,1 -6,1 -2,0 -4,0 -6,0 -6,0 -12,-1 -17,-3 -5,-2 -9,-5 -12,-8 -3,-4 -6,-8 -8,-13 -2,-5 -3,-11 -3,-17 0,-6 1,-12 3,-17 2,-5 5,-10 8,-13 4,-4 8,-6 13,-8 5,-2 10,-3 16,-3 3,0 6,0 9,1 3,1 5,1 7,2 2,1 4,2 5,2 1,1 2,2 3,2 1,1 1,1 1,2 0,1 0,2 0,3z"/>
  <path id="16" class="fil4" d="M1967 430c0,1 0,1 0,2 0,1 0,1 0,1 0,0 0,1 -1,1 0,0 -1,0 -1,0l-39 0c-1,0 -2,0 -3,-1 -1,-1 -1,-2 -1,-3l0 -72c0,-2 0,-3 1,-3 1,-1 2,-1 3,-1l38 0c0,0 1,0 1,0 0,0 0,0 1,1 0,0 0,1 0,1 0,1 0,1 0,2 0,1 0,1 0,2 0,1 0,1 0,1 0,0 0,1 -1,1 0,0 -1,0 -1,0l-32 0 0 25 27 0c0,0 1,0 1,0 0,0 0,0 1,1 0,0 0,1 0,1 0,1 0,1 0,2 0,1 0,1 0,2 0,1 0,1 0,1 0,0 0,1 -1,1 0,0 -1,0 -1,0l-27 0 0 29 32 0c0,0 1,0 1,0 0,0 1,0 1,1 0,0 0,1 0,1 0,1 0,1 0,2z"/>
  <path id="17" class="fil4" d="M2046 430c0,1 0,2 0,2 0,1 -1,1 -1,1 0,0 -1,1 -2,1 -1,0 -1,0 -2,0l-4 0c-1,0 -2,0 -3,0 -1,0 -2,-1 -2,-1 -1,-1 -2,-1 -2,-2 -1,-1 -2,-2 -2,-4l-25 -46c-1,-2 -3,-5 -4,-7 -1,-3 -3,-5 -4,-8l0 0c0,3 0,6 0,9 0,3 0,6 0,9l0 49c0,0 0,1 0,1 0,0 0,0 -1,1 0,0 -1,0 -2,0 -1,0 -2,0 -3,0 -1,0 -2,0 -3,0 -1,0 -1,0 -2,0 0,0 -1,0 -1,-1 0,0 0,-1 0,-1l0 -74c0,-2 0,-3 1,-4 1,-1 2,-1 3,-1l5 0c1,0 2,0 3,0 1,0 2,1 2,1 1,0 1,1 2,2 1,1 1,2 2,3l19 35c1,2 2,4 3,6 1,2 2,4 3,6 1,2 2,4 3,6 1,2 2,4 3,6l0 0c0,-3 0,-7 0,-10 0,-4 0,-7 0,-10l0 -44c0,0 0,-1 0,-1 0,0 0,0 1,-1 0,0 1,0 2,0 1,0 2,0 3,0 1,0 2,0 2,0 1,0 1,0 2,0 0,0 1,0 1,1 0,0 0,1 0,1l0 74z"/>
  <path id="18" class="fil4" d="M2121 423c0,1 0,1 0,2 0,0 0,1 0,1 0,0 0,1 0,1 0,0 0,1 -1,1 0,0 -1,1 -3,2 -1,1 -3,2 -5,2 -2,1 -4,1 -7,2 -3,1 -5,1 -8,1 -5,0 -10,-1 -14,-3 -4,-2 -8,-4 -11,-8 -3,-3 -5,-8 -7,-13 -2,-5 -2,-11 -2,-17 0,-7 1,-13 3,-18 2,-5 4,-10 7,-13 3,-4 7,-6 11,-8 4,-2 9,-3 14,-3 2,0 5,0 7,1 2,0 4,1 6,2 2,1 4,1 5,2 1,1 2,2 3,2 1,1 1,1 1,1 0,0 0,1 0,1 0,0 0,1 0,1 0,1 0,1 0,2 0,1 0,2 0,2 0,1 0,1 0,1 0,0 0,1 -1,1 0,0 -1,0 -1,0 -1,0 -1,0 -2,-1 -1,-1 -2,-2 -4,-3 -2,-1 -4,-2 -6,-3 -2,-1 -5,-1 -8,-1 -4,0 -7,1 -10,2 -3,1 -5,4 -8,6 -2,3 -4,6 -5,10 -1,4 -2,9 -2,14 0,5 1,10 2,14 1,4 3,7 5,10 2,3 5,5 8,6 3,1 6,2 10,2 3,0 6,0 8,-1 2,-1 4,-2 6,-3 2,-1 3,-2 4,-3 1,-1 2,-1 3,-1 0,0 1,0 1,0 0,0 0,0 0,1 0,0 0,1 0,1 0,1 0,1 0,2z"/>
  <path id="19" class="fil4" d="M2160 403l0 30c0,0 0,1 0,1 0,0 0,0 -1,1 0,0 -1,0 -2,0 -1,0 -2,0 -3,0 -1,0 -2,0 -3,0 -1,0 -1,0 -2,0 0,0 -1,0 -1,-1 0,0 0,-1 0,-1l0 -30 -23 -45c0,-1 -1,-2 -1,-2 0,-1 0,-1 0,-1 0,0 1,0 2,-1 1,0 2,0 3,0 1,0 2,0 3,0 1,0 1,0 2,0 0,0 1,0 1,1 0,0 0,1 1,1l11 23c1,2 2,5 3,7 1,2 2,5 3,7l0 0c1,-2 2,-5 3,-7 1,-2 2,-5 3,-7l11 -23c0,0 0,-1 1,-1 0,0 1,-1 1,-1 0,0 1,0 2,0 1,0 2,0 3,0 1,0 3,0 4,0 1,0 1,0 2,1 0,0 0,1 0,1 0,1 0,1 -1,2l-23 45z"/>
  <line class="fil5 str0" x1="557" y1="1" x2="559" y2= "435" />
 </g>
</svg>
